<?xml version="1.0" encoding="utf-8"?>
<!-- Generator: Adobe Illustrator 23.0.1, SVG Export Plug-In . SVG Version: 6.00 Build 0)  -->
<svg version="1.1" id="Layer_1" xmlns="http://www.w3.org/2000/svg" xmlns:xlink="http://www.w3.org/1999/xlink" x="0px" y="0px"
	 viewBox="0 0 841.89 595.28" style="enable-background:new 0 0 841.89 595.28;" xml:space="preserve">
<style type="text/css">
	.st0{fill:none;stroke:#020203;stroke-width:8;stroke-linecap:round;stroke-miterlimit:10;}
</style>
<g>
	<g>
		<path class="st0" d="M302.86,237.09c-13.31,26-18.25,56.51-12.02,87.36"/>
		<path class="st0" d="M480.88,177.83c-25.54-12.54-55.27-17.06-85.32-11c-34.13,6.88-62.59,26.19-81.62,52.26"/>
		<path class="st0" d="M553.16,271.55c-7.06-35.01-27.19-64.06-54.29-83.07"/>
	</g>
</g>
<g>
	<g>
		<path class="st0" d="M555.88,300.69c0.18-9.59-0.67-19.36-2.64-29.15"/>
		<path class="st0" d="M290.91,324.44c0.39,1.92,0.81,3.82,1.28,5.71"/>
	</g>
</g>
<path class="st0" d="M387.46,427.29c29.98-34.12,44.25-81.34,34.58-129.29"/>
<path class="st0" d="M399.18,376.34c-6.55,16.8-16.44,32.13-29.02,45.03"/>
<path class="st0" d="M406.19,430.9c29.05-37.17,42.3-86.33,32.25-136.21l0.05-0.02c-1.84-9.1-10.7-15-19.81-13.16
	c-9.1,1.84-14.99,10.7-13.16,19.81l0.12-0.02c3.75,18.58,3.45,37.04-0.28,54.46"/>
<path class="st0" d="M390.51,312.14c5.25,38.7-9.21,76.08-36.16,101.29"/>
<path class="st0" d="M458.5,327.43c-0.03-11.89-1.23-23.95-3.67-36.05l0.04-0.01c-3.66-18.15-21.34-29.9-39.49-26.24
	c-13.56,2.73-23.55,13.29-26.2,26.03"/>
<path class="st0" d="M426.27,431.75c16.74-24.47,27.61-52.94,31.04-83.1"/>
<path class="st0" d="M425.93,247.9c-4.53-0.35-9.18-0.09-13.86,0.85c-27.2,5.49-44.8,31.98-39.32,59.18l0.09-0.02
	c7.42,36.79-6.29,72.94-32.78,95.88"/>
<path class="st0" d="M447.61,429.32c24.11-41.1,33.78-90.87,23.62-141.25l0.02-0.01c-3.02-14.99-12.42-27.06-24.81-33.97"/>
<path class="st0" d="M352.46,357.99c-5.23,13.46-13.88,25.42-25.09,34.61"/>
<path class="st0" d="M489.08,363.06c4.16-25.27,3.9-51.7-1.46-78.29l0.01-0.01c-7.31-36.25-42.62-59.71-78.87-52.4
	c-36.25,7.31-59.71,42.62-52.4,78.87l0.08-0.02c1.74,8.61,2.08,17.18,1.2,25.47"/>
<path class="st0" d="M470.01,422.91c6.07-12.46,10.97-25.52,14.58-39.02"/>
<path class="st0" d="M489.67,248.76c6.88,9.45,11.89,20.5,14.35,32.71l0,0c9.09,45.1,4.56,89.79-10.74,129.81"/>
<path class="st0" d="M387.07,221.95c5.76-2.64,11.91-4.66,18.39-5.97c25.61-5.16,50.84,1.96,69.59,17.31"/>
<path class="st0" d="M316.28,380.05c18.9-15.19,28.9-40.12,23.77-65.52l-0.06,0.01c-6.37-31.57,5.94-62.56,29.32-81.54"/>
<path class="st0" d="M321.68,301.98c0.21,5.25,0.84,10.55,1.92,15.87l0.05-0.01c3.75,18.61-3.3,36.88-16.82,48.34"/>
<path class="st0" d="M522.69,291.16c-0.64-4.33-1.4-8.66-2.27-12.99l-0.02,0c-10.96-54.35-63.89-89.52-118.24-78.56
	c-41.76,8.42-72.21,41.64-79.09,81.23"/>
<path class="st0" d="M516.98,392.26c6.83-25.6,9.66-52.57,7.93-80.03"/>
<path class="st0" d="M437.69,181.93c-12.59-1.7-25.67-1.37-38.83,1.29c-63.4,12.78-104.42,74.53-91.64,137.93l0.04-0.01
	c2.22,11-1.22,21.82-8.31,29.47"/>
<path class="st0" d="M540.1,360.9c3.48-27.94,2.58-56.92-3.29-86.04l-0.03,0c-8.69-43.11-40.03-75.88-79.13-88.41"/>
</svg>
